<svg width="103" height="137" viewBox="0 0 103 137" fill="none" xmlns="http://www.w3.org/2000/svg">
<rect x="0.920898" y="0.761719" width="101.248" height="136.238" rx="10" fill="#DDEAFF"/>
<path d="M33.1323 38.864C34.5936 38.864 35.6923 39.184 36.4283 39.824C37.1749 40.4533 37.5483 41.44 37.5483 42.784V47.6C37.5483 47.7173 37.5056 47.8133 37.4203 47.888C37.3456 47.9627 37.2496 48 37.1323 48H35.2603C35.1429 48 35.0416 47.9627 34.9563 47.888C34.8816 47.8133 34.8443 47.7173 34.8443 47.6V42.864C34.8443 41.648 34.2416 41.04 33.0363 41.04H31.9963C31.9003 41.4027 31.8309 41.7653 31.7883 42.128C31.7563 42.4907 31.7403 42.912 31.7403 43.392L31.8683 47.6C31.8683 47.7067 31.8309 47.8027 31.7563 47.888C31.6816 47.9627 31.5856 48 31.4683 48L28.0763 47.984C27.9589 47.984 27.8576 47.9467 27.7723 47.872C27.6976 47.7973 27.6603 47.7013 27.6603 47.584V46.336C27.6603 46.2187 27.6976 46.1227 27.7723 46.048C27.8576 45.9627 27.9589 45.92 28.0763 45.92L29.3723 45.936V43.408C29.3509 42.5333 29.4309 41.744 29.6123 41.04H28.6683C28.5509 41.04 28.4496 41.0027 28.3643 40.928C28.2896 40.8427 28.2523 40.7413 28.2523 40.624V39.264C28.2523 39.1467 28.2896 39.0507 28.3643 38.976C28.4496 38.9013 28.5509 38.864 28.6683 38.864H33.1323ZM39.6905 44.208C39.5732 44.208 39.4719 44.1707 39.3865 44.096C39.3119 44.0213 39.2745 43.9253 39.2745 43.808V39.264C39.2745 39.1467 39.3119 39.0507 39.3865 38.976C39.4719 38.9013 39.5732 38.864 39.6905 38.864H41.6745C41.7919 38.864 41.8879 38.9013 41.9625 38.976C42.0372 39.0507 42.0745 39.1467 42.0745 39.264V43.808C42.0745 43.9147 42.0372 44.0107 41.9625 44.096C41.8879 44.1707 41.7919 44.208 41.6745 44.208H39.6905ZM44.0127 48C43.906 48 43.81 47.9627 43.7247 47.888C43.65 47.8027 43.6127 47.7067 43.6127 47.6V46.24C43.6127 46.1227 43.65 46.0267 43.7247 45.952C43.7993 45.8667 43.8953 45.824 44.0127 45.824H48.0287V42.864C48.0287 41.648 47.426 41.04 46.2207 41.04H44.1727C44.066 41.04 43.97 41.0027 43.8847 40.928C43.81 40.8427 43.7727 40.7467 43.7727 40.64V39.264C43.7727 39.1467 43.81 39.0507 43.8847 38.976C43.97 38.9013 44.066 38.864 44.1727 38.864H46.3007C47.794 38.864 48.9193 39.1787 49.6767 39.808C50.4447 40.4373 50.8287 41.456 50.8287 42.864V45.824H51.3887C51.506 45.824 51.602 45.8667 51.6767 45.952C51.7513 46.0267 51.7887 46.1227 51.7887 46.24V47.6C51.7887 47.7067 51.7513 47.8027 51.6767 47.888C51.602 47.9627 51.506 48 51.3887 48H44.0127ZM59.4074 48C59.2901 48 59.1941 47.9627 59.1194 47.888C59.0447 47.8133 59.0074 47.7173 59.0074 47.6V42.864C59.0074 41.648 58.3994 41.04 57.1834 41.04H53.5514C53.4341 41.04 53.3327 41.0027 53.2474 40.928C53.1727 40.8427 53.1354 40.7413 53.1354 40.624V39.264C53.1354 39.1467 53.1727 39.0507 53.2474 38.976C53.3327 38.9013 53.4341 38.864 53.5514 38.864H57.2634C58.7354 38.864 59.8394 39.1893 60.5754 39.84C61.3221 40.4907 61.6954 41.504 61.6954 42.88V47.6C61.6954 47.7067 61.6581 47.8027 61.5834 47.888C61.5087 47.9627 61.4127 48 61.2954 48H59.4074ZM53.5514 48C53.4341 48 53.3327 47.9627 53.2474 47.888C53.1727 47.8133 53.1354 47.7173 53.1354 47.6V42.928C53.1354 42.8107 53.1727 42.7147 53.2474 42.64C53.3327 42.5547 53.4341 42.512 53.5514 42.512H55.4394C55.5567 42.512 55.6527 42.5547 55.7274 42.64C55.8021 42.7147 55.8394 42.8107 55.8394 42.928V47.6C55.8394 47.7067 55.8021 47.8027 55.7274 47.888C55.6527 47.9627 55.5567 48 55.4394 48H53.5514ZM68.8544 38.864C69.9744 38.864 70.8757 39.1893 71.5584 39.84C72.2411 40.4907 72.5824 41.4667 72.5824 42.768V47.6C72.5824 47.7067 72.5451 47.8027 72.4704 47.888C72.3957 47.9627 72.2997 48 72.1824 48H67.8304C67.7237 48 67.6277 47.9627 67.5424 47.888C67.4677 47.8027 67.4304 47.7067 67.4304 47.6V46.24C67.4304 46.1227 67.4677 46.0267 67.5424 45.952C67.6171 45.8667 67.7131 45.824 67.8304 45.824H69.8944V42.896C69.8944 42.3413 69.7611 41.9093 69.4944 41.6C69.2277 41.28 68.8757 41.12 68.4384 41.12H67.2064L65.8304 47.584C65.8304 47.7013 65.7877 47.8027 65.7024 47.888C65.6277 47.9627 65.5317 48 65.4144 48H63.5904C63.4731 48 63.3717 47.9627 63.2864 47.888C63.2117 47.8027 63.1851 47.7013 63.2064 47.584L64.7744 41.136H63.7184C63.6117 41.136 63.5157 41.0987 63.4304 41.024C63.3557 40.9387 63.3184 40.8427 63.3184 40.736V39.264C63.3184 39.1467 63.3557 39.0507 63.4304 38.976C63.5157 38.9013 63.6117 38.864 63.7184 38.864H68.8544Z" fill="#001925"/>
<circle cx="51.8318" cy="93.9111" r="29.0147" fill="white"/>
<path d="M45.3611 101.293H57.8733V91.0301L51.6172 85.3433L45.3611 91.0301V101.293ZM58.916 103.379H44.3184C44.0419 103.379 43.7767 103.269 43.5811 103.073C43.3856 102.878 43.2757 102.612 43.2757 102.336V92.9518H40.1477L50.9155 83.1631C51.1074 82.9884 51.3577 82.8916 51.6172 82.8916C51.8767 82.8916 52.127 82.9884 52.3189 83.1631L63.0867 92.9518H59.9586V102.336C59.9586 102.612 59.8488 102.878 59.6532 103.073C59.4577 103.269 59.1925 103.379 58.916 103.379ZM47.4465 91.9091C49.3822 91.9091 51.2387 92.6781 52.6075 94.0468C53.9763 95.4156 54.7452 97.2721 54.7452 99.2078H52.6599C52.6599 97.8252 52.1106 96.4991 51.1329 95.5214C50.1552 94.5437 48.8292 93.9944 47.4465 93.9944V91.9091ZM47.4465 96.0798C48.2761 96.0798 49.0717 96.4094 49.6583 96.996C50.245 97.5826 50.5745 98.3782 50.5745 99.2078H47.4465V96.0798Z" fill="#8C96A2"/>
</svg>
