<svg width="102" height="137" viewBox="0 0 102 137" fill="none" xmlns="http://www.w3.org/2000/svg">
<rect x="0.139648" y="0.761719" width="101.248" height="136.238" rx="10" fill="#DDEAFF"/>
<circle cx="50.7637" cy="93.9111" r="29.0147" fill="white"/>
<path d="M51.8053 103.378H57.0187V105.463H44.5066V103.378H49.72V102.283C48.0668 102.117 46.4772 101.558 45.0835 100.654C43.6899 99.7489 42.5326 98.5244 41.708 97.0819L43.5191 96.0476C44.156 97.1604 45.0408 98.1114 46.1048 98.8268C47.1689 99.5421 48.3835 100.003 49.6544 100.172C50.9252 100.342 52.2181 100.217 53.4326 99.8057C54.6471 99.3947 55.7505 98.7093 56.6571 97.8026C57.5638 96.896 58.2492 95.7926 58.6602 94.5781C59.0711 93.3636 59.1966 92.0707 59.0268 90.7999C58.8571 89.529 58.3966 88.3144 57.6813 87.2503C56.9659 86.1863 56.0149 85.3015 54.9021 84.6647L55.9364 82.8535C57.5328 83.7654 58.8596 85.0833 59.7822 86.6735C60.7047 88.2637 61.1902 90.0697 61.1895 91.9082C61.1895 97.3145 57.074 101.76 51.8053 102.283V103.378ZM50.7627 99.2069C49.8042 99.2069 48.8551 99.0181 47.9695 98.6513C47.084 98.2845 46.2794 97.7469 45.6016 97.0692C44.9239 96.3914 44.3863 95.5868 44.0195 94.7013C43.6527 93.8157 43.4639 92.8666 43.4639 91.9082C43.4639 90.9497 43.6527 90.0006 44.0195 89.115C44.3863 88.2295 44.9239 87.4249 45.6016 86.7471C46.2794 86.0694 47.084 85.5318 47.9695 85.165C48.8551 84.7982 49.8042 84.6094 50.7627 84.6094C52.6984 84.6094 54.5549 85.3784 55.9237 86.7471C57.2924 88.1159 58.0614 89.9724 58.0614 91.9082C58.0614 93.8439 57.2924 95.7004 55.9237 97.0692C54.5549 98.4379 52.6984 99.2069 50.7627 99.2069ZM50.7627 97.1216C52.1453 97.1216 53.4714 96.5723 54.4491 95.5946C55.4268 94.6169 55.9761 93.2908 55.9761 91.9082C55.9761 90.5255 55.4268 89.1994 54.4491 88.2217C53.4714 87.244 52.1453 86.6948 50.7627 86.6948C49.38 86.6948 48.0539 87.244 47.0762 88.2217C46.0985 89.1994 45.5492 90.5255 45.5492 91.9082C45.5492 93.2908 46.0985 94.6169 47.0762 95.5946C48.0539 96.5723 49.38 97.1216 50.7627 97.1216Z" fill="#8C96A2"/>
<path d="M17.1403 48C17.0229 48 16.9216 47.9627 16.8363 47.888C16.7616 47.8133 16.7243 47.7173 16.7243 47.6V39.264C16.7243 39.1467 16.7616 39.0507 16.8363 38.976C16.9216 38.9013 17.0229 38.864 17.1403 38.864H20.7563C22.2176 38.864 23.3003 39.1733 24.0043 39.792C24.7189 40.4 25.0763 41.3973 25.0763 42.784V47.584C25.0763 47.7013 25.0336 47.8027 24.9483 47.888C24.8736 47.9627 24.7776 48 24.6603 48H17.1403ZM22.5003 45.824V42.864C22.5003 41.648 21.8923 41.04 20.6763 41.04H19.1403V45.824H22.5003ZM27.2965 48C27.1792 48 27.0779 47.9627 26.9925 47.888C26.9179 47.8133 26.8805 47.7173 26.8805 47.6V39.264C26.8805 39.1467 26.9179 39.0507 26.9925 38.976C27.0779 38.9013 27.1792 38.864 27.2965 38.864H29.2805C29.3979 38.864 29.4939 38.9013 29.5685 38.976C29.6432 39.0507 29.6805 39.1467 29.6805 39.264V47.6C29.6805 47.7067 29.6432 47.8027 29.5685 47.888C29.4939 47.9627 29.3979 48 29.2805 48H27.2965ZM35.8556 48.208C35.749 48.2293 35.6476 48.192 35.5516 48.096C35.4663 48 35.4236 47.8933 35.4236 47.776V46.176C35.4236 46.0693 35.461 45.9733 35.5356 45.888C35.6103 45.792 35.7063 45.7173 35.8236 45.664L36.3356 45.456C36.837 45.2533 37.2263 44.9653 37.5036 44.592C37.7916 44.208 37.9356 43.664 37.9356 42.96C37.9356 42.288 37.813 41.8187 37.5676 41.552C37.333 41.2747 36.8956 41.136 36.2556 41.136H31.9996C31.8823 41.136 31.781 41.0987 31.6956 41.024C31.621 40.9387 31.5836 40.8427 31.5836 40.736V39.248C31.5836 39.1413 31.6263 39.0507 31.7116 38.976C31.797 38.9013 31.893 38.864 31.9996 38.864H36.8156C38.2023 38.864 39.1943 39.2 39.7916 39.872C40.3996 40.5333 40.7036 41.536 40.7036 42.88C40.7036 44.2347 40.3036 45.344 39.5036 46.208C38.7036 47.072 37.7063 47.6747 36.5116 48.016L35.8556 48.208ZM31.9996 51.056C31.8823 51.056 31.781 51.0187 31.6956 50.944C31.621 50.8693 31.5836 50.7733 31.5836 50.656V42.928C31.5836 42.8107 31.621 42.7147 31.6956 42.64C31.781 42.5547 31.8823 42.512 31.9996 42.512H33.8236C33.941 42.512 34.037 42.5547 34.1116 42.64C34.1863 42.7147 34.2236 42.8107 34.2236 42.928V50.656C34.2236 50.7733 34.1863 50.8693 34.1116 50.944C34.037 51.0187 33.941 51.056 33.8236 51.056H31.9996ZM47.5995 38.864C48.7195 38.864 49.6209 39.1893 50.3035 39.84C50.9862 40.4907 51.3275 41.4667 51.3275 42.768V47.6C51.3275 47.7067 51.2902 47.8027 51.2155 47.888C51.1409 47.9627 51.0449 48 50.9275 48H46.5755C46.4689 48 46.3729 47.9627 46.2875 47.888C46.2129 47.8027 46.1755 47.7067 46.1755 47.6V46.24C46.1755 46.1227 46.2129 46.0267 46.2875 45.952C46.3622 45.8667 46.4582 45.824 46.5755 45.824H48.6395V42.896C48.6395 42.3413 48.5062 41.9093 48.2395 41.6C47.9729 41.28 47.6209 41.12 47.1835 41.12H45.9515L44.5755 47.584C44.5755 47.7013 44.5329 47.8027 44.4475 47.888C44.3729 47.9627 44.2769 48 44.1595 48H42.3355C42.2182 48 42.1169 47.9627 42.0315 47.888C41.9569 47.8027 41.9302 47.7013 41.9515 47.584L43.5195 41.136H42.4635C42.3569 41.136 42.2609 41.0987 42.1755 41.024C42.1009 40.9387 42.0635 40.8427 42.0635 40.736V39.264C42.0635 39.1467 42.1009 39.0507 42.1755 38.976C42.2609 38.9013 42.3569 38.864 42.4635 38.864H47.5995ZM59.3599 38.864C60.7466 38.864 61.7386 39.2 62.3359 39.872C62.9439 40.5333 63.2479 41.536 63.2479 42.88C63.2479 44.2347 62.8479 45.344 62.0479 46.208C61.2479 47.072 60.2506 47.6747 59.0559 48.016L58.3999 48.208C58.2932 48.2293 58.1919 48.192 58.0959 48.096C58.0106 48 57.9679 47.8933 57.9679 47.776V46.176C57.9679 46.0693 58.0052 45.9733 58.0799 45.888C58.1546 45.792 58.2506 45.7173 58.3679 45.664L58.8799 45.456C59.3812 45.2533 59.7706 44.9653 60.0479 44.592C60.3359 44.208 60.4799 43.664 60.4799 42.96C60.4799 42.288 60.3572 41.8187 60.1119 41.552C59.8772 41.2747 59.4399 41.136 58.7999 41.136H56.2559C56.1386 41.136 56.0372 41.0987 55.9519 41.024C55.8772 40.9493 55.8399 40.8533 55.8399 40.736V37.04C55.8399 36.9227 55.8772 36.8267 55.9519 36.752C56.0372 36.6773 56.1386 36.64 56.2559 36.64H57.9679C58.0852 36.64 58.1812 36.6773 58.2559 36.752C58.3306 36.8267 58.3679 36.9227 58.3679 37.04V38.864H59.3599ZM65.138 48C65.0314 48 64.9354 47.9627 64.85 47.888C64.7754 47.8027 64.738 47.7067 64.738 47.6V46.128C64.738 46.0107 64.7754 45.9147 64.85 45.84C64.9354 45.7653 65.0314 45.728 65.138 45.728H67.458C68.0767 45.728 68.546 45.5733 68.866 45.264C69.186 44.9547 69.3567 44.5013 69.378 43.904C69.3887 43.776 69.394 43.616 69.394 43.424C69.394 43.2427 69.3887 43.088 69.378 42.96C69.3567 42.3627 69.186 41.9093 68.866 41.6C68.546 41.2907 68.0767 41.136 67.458 41.136H65.138C65.0314 41.136 64.9354 41.0987 64.85 41.024C64.7754 40.9387 64.738 40.8427 64.738 40.736V39.264C64.738 39.1467 64.7754 39.0507 64.85 38.976C64.9354 38.9013 65.0314 38.864 65.138 38.864H67.538C70.3647 38.864 71.842 40.2347 71.97 42.976C71.9807 43.0933 71.986 43.2427 71.986 43.424C71.986 44.8747 71.634 46 70.93 46.8C70.2367 47.6 69.106 48 67.538 48H65.138ZM78.7714 38.864C79.8914 38.864 80.7927 39.1893 81.4754 39.84C82.1581 40.4907 82.4994 41.4667 82.4994 42.768V47.6C82.4994 47.7067 82.4621 47.8027 82.3874 47.888C82.3127 47.9627 82.2167 48 82.0994 48H77.7474C77.6407 48 77.5447 47.9627 77.4594 47.888C77.3847 47.8027 77.3474 47.7067 77.3474 47.6V46.24C77.3474 46.1227 77.3847 46.0267 77.4594 45.952C77.5341 45.8667 77.6301 45.824 77.7474 45.824H79.8114V42.896C79.8114 42.3413 79.6781 41.9093 79.4114 41.6C79.1447 41.28 78.7927 41.12 78.3554 41.12H77.1234L75.7474 47.584C75.7474 47.7013 75.7047 47.8027 75.6194 47.888C75.5447 47.9627 75.4487 48 75.3314 48H73.5074C73.3901 48 73.2887 47.9627 73.2034 47.888C73.1287 47.8027 73.1021 47.7013 73.1234 47.584L74.6914 41.136H73.6354C73.5287 41.136 73.4327 41.0987 73.3474 41.024C73.2727 40.9387 73.2354 40.8427 73.2354 40.736V39.264C73.2354 39.1467 73.2727 39.0507 73.3474 38.976C73.4327 38.9013 73.5287 38.864 73.6354 38.864H78.7714Z" fill="#001925"/>
</svg>
