<svg width="102" height="137" viewBox="0 0 102 137" fill="none" xmlns="http://www.w3.org/2000/svg">
<rect x="0.530273" y="0.761719" width="101.248" height="136.238" rx="10" fill="#DDEAFF"/>
<circle cx="51.4414" cy="93.4736" r="29.0147" fill="white"/>
<g clip-path="url(#clip0)">
<path d="M51.6222 95.6418V97.7271C49.963 97.7271 48.3717 98.3863 47.1985 99.5595C46.0252 100.733 45.3661 102.324 45.3661 103.983H43.2808C43.2808 101.771 44.1596 99.6492 45.7239 98.0849C47.2882 96.5206 49.4099 95.6418 51.6222 95.6418ZM51.6222 94.5991C48.1657 94.5991 45.3661 91.7995 45.3661 88.343C45.3661 84.8865 48.1657 82.0869 51.6222 82.0869C55.0787 82.0869 57.8783 84.8865 57.8783 88.343C57.8783 91.7995 55.0787 94.5991 51.6222 94.5991ZM51.6222 92.5137C53.9265 92.5137 55.7929 90.6473 55.7929 88.343C55.7929 86.0387 53.9265 84.1723 51.6222 84.1723C49.3179 84.1723 47.4515 86.0387 47.4515 88.343C47.4515 90.6473 49.3179 92.5137 51.6222 92.5137ZM60.827 103.015L57.8783 106.069L54.9296 103.015C53.2999 101.328 53.2999 98.5936 54.9296 96.9065C55.3098 96.507 55.7672 96.1889 56.2741 95.9716C56.781 95.7543 57.3268 95.6422 57.8783 95.6422C58.4298 95.6422 58.9756 95.7543 59.4825 95.9716C59.9893 96.1889 60.4468 96.507 60.827 96.9065C62.4567 98.5936 62.4567 101.328 60.827 103.015ZM59.3276 101.565C60.1753 100.687 60.1753 99.2338 59.3276 98.3559C59.1419 98.1575 58.9175 97.9993 58.6682 97.8912C58.4189 97.7831 58.15 97.7273 57.8783 97.7273C57.6066 97.7273 57.3377 97.7831 57.0884 97.8912C56.8391 97.9993 56.6147 98.1575 56.429 98.3559C55.5813 99.2338 55.5813 100.687 56.429 101.566L57.8783 103.066L59.3276 101.564V101.565Z" fill="#8C96A2"/>
</g>
<path d="M18.5089 44.209C18.3916 44.209 18.2902 44.1716 18.2049 44.097C18.1302 44.0223 18.0929 43.9263 18.0929 43.809V39.265C18.0929 39.1476 18.1302 39.0516 18.2049 38.977C18.2902 38.9023 18.3916 38.865 18.5089 38.865H20.4929C20.6102 38.865 20.7062 38.9023 20.7809 38.977C20.8556 39.0516 20.8929 39.1476 20.8929 39.265V43.809C20.8929 43.9156 20.8556 44.0116 20.7809 44.097C20.7062 44.1716 20.6102 44.209 20.4929 44.209H18.5089ZM23.087 44.209C22.9697 44.209 22.8683 44.1716 22.783 44.097C22.7083 44.0223 22.671 43.9263 22.671 43.809V39.265C22.671 39.1476 22.7083 39.0516 22.783 38.977C22.8683 38.9023 22.9697 38.865 23.087 38.865H25.071C25.1883 38.865 25.2843 38.9023 25.359 38.977C25.4337 39.0516 25.471 39.1476 25.471 39.265V43.809C25.471 43.9156 25.4337 44.0116 25.359 44.097C25.2843 44.1716 25.1883 44.209 25.071 44.209H23.087ZM30.4331 38.865C31.8198 38.865 32.8118 39.201 33.4091 39.873C34.0171 40.5343 34.3211 41.537 34.3211 42.881C34.3211 44.2356 33.9211 45.345 33.1211 46.209C32.3211 47.073 31.3238 47.6756 30.1291 48.017L29.4731 48.209C29.3665 48.2303 29.2651 48.193 29.1691 48.097C29.0838 48.001 29.0411 47.8943 29.0411 47.777V46.177C29.0411 46.0703 29.0785 45.9743 29.1531 45.889C29.2278 45.793 29.3238 45.7183 29.4411 45.665L29.9531 45.457C30.4545 45.2543 30.8438 44.9663 31.1211 44.593C31.4091 44.209 31.5531 43.665 31.5531 42.961C31.5531 42.289 31.4305 41.8196 31.1851 41.553C30.9505 41.2756 30.5131 41.137 29.8731 41.137H27.3291C27.2118 41.137 27.1105 41.0996 27.0251 41.025C26.9505 40.9503 26.9131 40.8543 26.9131 40.737V37.041C26.9131 36.9236 26.9505 36.8276 27.0251 36.753C27.1105 36.6783 27.2118 36.641 27.3291 36.641H29.0411C29.1585 36.641 29.2545 36.6783 29.3291 36.753C29.4038 36.8276 29.4411 36.9236 29.4411 37.041V38.865H30.4331ZM44.3553 47.441C44.4086 47.505 44.4353 47.5796 44.4353 47.665C44.4353 47.7503 44.3979 47.8303 44.3233 47.905C44.2593 47.969 44.1846 48.001 44.0993 48.001H42.1313C41.9926 48.001 41.8806 47.9743 41.7953 47.921C41.7206 47.857 41.6459 47.777 41.5713 47.681L38.7553 43.633C38.4673 43.8783 38.2806 44.1663 38.1953 44.497C38.1099 44.8276 38.0673 45.185 38.0673 45.569V47.569C38.0673 47.697 38.0299 47.8036 37.9553 47.889C37.8806 47.9636 37.7846 48.001 37.6673 48.001H36.0993C35.9926 48.001 35.8966 47.9583 35.8113 47.873C35.7366 47.7876 35.6993 47.6863 35.6993 47.569V45.585C35.6993 44.6783 35.8219 43.9423 36.0673 43.377C36.3126 42.8116 36.7766 42.2783 37.4593 41.777L35.8273 39.425C35.7739 39.361 35.7473 39.2863 35.7473 39.201C35.7473 39.1156 35.7793 39.041 35.8433 38.977C35.9179 38.9023 35.9979 38.865 36.0833 38.865H37.9713C38.1206 38.865 38.2326 38.9023 38.3073 38.977C38.3926 39.041 38.4726 39.121 38.5473 39.217L41.1233 42.865C41.4219 42.6623 41.6086 42.433 41.6833 42.177C41.7686 41.9103 41.8113 41.601 41.8113 41.249V39.297C41.8113 39.169 41.8486 39.0676 41.9233 38.993C41.9979 38.9076 42.0939 38.865 42.2113 38.865H43.8913C43.9979 38.865 44.0886 38.9076 44.1633 38.993C44.2486 39.0783 44.2913 39.1796 44.2913 39.297V41.313C44.2913 42.0063 44.1579 42.6303 43.8913 43.185C43.6246 43.7396 43.1339 44.2463 42.4193 44.705L44.3553 47.441ZM49.5966 48.001C49.49 48.001 49.394 47.9636 49.3086 47.889C49.234 47.8036 49.1966 47.7076 49.1966 47.601V46.241C49.1966 46.1236 49.234 46.0276 49.3086 45.953C49.3833 45.8676 49.4793 45.825 49.5966 45.825H53.6126V42.865C53.6126 41.649 53.01 41.041 51.8046 41.041H49.7566C49.65 41.041 49.554 41.0036 49.4686 40.929C49.394 40.8436 49.3566 40.7476 49.3566 40.641V39.265C49.3566 39.1476 49.394 39.0516 49.4686 38.977C49.554 38.9023 49.65 38.865 49.7566 38.865H51.8846C53.378 38.865 54.5033 39.1796 55.2606 39.809C56.0286 40.4383 56.4126 41.457 56.4126 42.865V45.825H56.9726C57.09 45.825 57.186 45.8676 57.2606 45.953C57.3353 46.0276 57.3726 46.1236 57.3726 46.241V47.601C57.3726 47.7076 57.3353 47.8036 57.2606 47.889C57.186 47.9636 57.09 48.001 56.9726 48.001H49.5966ZM59.1354 48.001C59.0181 48.001 58.9167 47.9636 58.8314 47.889C58.7567 47.8143 58.7194 47.7183 58.7194 47.601V39.265C58.7194 39.1476 58.7567 39.0516 58.8314 38.977C58.9167 38.9023 59.0181 38.865 59.1354 38.865H61.1194C61.2367 38.865 61.3327 38.9023 61.4074 38.977C61.4821 39.0516 61.5194 39.1476 61.5194 39.265V47.601C61.5194 47.7076 61.4821 47.8036 61.4074 47.889C61.3327 47.9636 61.2367 48.001 61.1194 48.001H59.1354ZM68.1745 48.001C68.0572 48.001 67.9612 47.9636 67.8865 47.889C67.8118 47.8143 67.7745 47.7183 67.7745 47.601V42.865C67.7745 41.649 67.1665 41.041 65.9505 41.041H63.5185C63.4012 41.041 63.3052 41.0036 63.2305 40.929C63.1558 40.8436 63.1185 40.7423 63.1185 40.625V39.265C63.1185 39.1476 63.1558 39.0516 63.2305 38.977C63.3158 38.9023 63.4118 38.865 63.5185 38.865H66.0465C67.5292 38.865 68.6332 39.169 69.3585 39.777C70.0945 40.385 70.4625 41.3823 70.4625 42.769V47.601C70.4625 47.7076 70.4252 47.8036 70.3505 47.889C70.2758 47.9636 70.1798 48.001 70.0625 48.001H68.1745ZM76.5383 48.209C76.4316 48.2303 76.3303 48.193 76.2343 48.097C76.1489 48.001 76.1063 47.8943 76.1063 47.777V46.177C76.1063 46.0703 76.1436 45.9743 76.2183 45.889C76.2929 45.793 76.3889 45.7183 76.5063 45.665L77.0183 45.457C77.5196 45.2543 77.9089 44.9663 78.1863 44.593C78.4743 44.209 78.6183 43.665 78.6183 42.961C78.6183 42.289 78.4956 41.8196 78.2503 41.553C78.0156 41.2756 77.5783 41.137 76.9383 41.137H72.6823C72.5649 41.137 72.4636 41.0996 72.3783 41.025C72.3036 40.9396 72.2663 40.8436 72.2663 40.737V39.249C72.2663 39.1423 72.3089 39.0516 72.3943 38.977C72.4796 38.9023 72.5756 38.865 72.6823 38.865H77.4983C78.8849 38.865 79.8769 39.201 80.4743 39.873C81.0823 40.5343 81.3863 41.537 81.3863 42.881C81.3863 44.2356 80.9863 45.345 80.1863 46.209C79.3863 47.073 78.3889 47.6756 77.1943 48.017L76.5383 48.209ZM72.6823 51.057C72.5649 51.057 72.4636 51.0196 72.3783 50.945C72.3036 50.8703 72.2663 50.7743 72.2663 50.657V42.929C72.2663 42.8116 72.3036 42.7156 72.3783 42.641C72.4636 42.5556 72.5649 42.513 72.6823 42.513H74.5063C74.6236 42.513 74.7196 42.5556 74.7943 42.641C74.8689 42.7156 74.9063 42.8116 74.9063 42.929V50.657C74.9063 50.7743 74.8689 50.8703 74.7943 50.945C74.7196 51.0196 74.6236 51.057 74.5063 51.057H72.6823Z" fill="#001925"/>
<defs>
<clipPath id="clip0">
<rect width="25.0243" height="25.0243" fill="white" transform="translate(39.1101 81.0439)"/>
</clipPath>
</defs>
</svg>
