<svg width="131" height="48" viewBox="0 0 131 48" fill="none" xmlns="http://www.w3.org/2000/svg">
<rect width="131" height="48" rx="24" fill="#5C95E3"/>
<path d="M57.4663 29.667C57.2956 29.667 57.1676 29.6243 57.0823 29.539C56.9969 29.4537 56.9383 29.3897 56.9063 29.347L51.1463 21.107C51.0929 21.0323 51.0663 20.9523 51.0663 20.867C51.0663 20.7817 51.0983 20.707 51.1623 20.643C51.2369 20.5683 51.3223 20.531 51.4183 20.531H53.1943C53.3649 20.531 53.4929 20.5737 53.5783 20.659C53.6636 20.7443 53.7276 20.8137 53.7703 20.867L59.5783 29.091C59.6209 29.1443 59.6423 29.1923 59.6423 29.235C59.6529 29.267 59.6583 29.299 59.6583 29.331C59.6583 29.4163 59.6263 29.4963 59.5623 29.571C59.4983 29.635 59.4183 29.667 59.3223 29.667H57.4663ZM51.4023 29.667C51.2956 29.667 51.1996 29.6243 51.1143 29.539C51.0396 29.4537 51.0023 29.3577 51.0023 29.251V27.219C51.0023 26.6217 51.0556 26.099 51.1623 25.651C51.2689 25.1923 51.4609 24.7763 51.7383 24.403C52.0156 24.0297 52.4156 23.6617 52.9383 23.299L54.1703 25.091C53.9143 25.283 53.7223 25.507 53.5943 25.763C53.4663 26.0083 53.3863 26.259 53.3543 26.515C53.3223 26.771 53.3063 27.0003 53.3063 27.203V29.251C53.3063 29.3683 53.2636 29.4697 53.1783 29.555C53.1036 29.6297 53.0129 29.667 52.9063 29.667H51.4023ZM57.3383 26.563L56.0903 24.787C56.4316 24.6163 56.6716 24.4297 56.8103 24.227C56.9596 24.0137 57.0503 23.795 57.0823 23.571C57.1143 23.347 57.1303 23.1337 57.1303 22.931V20.947C57.1303 20.819 57.1676 20.7177 57.2423 20.643C57.3276 20.5683 57.4236 20.531 57.5303 20.531H59.1303C59.2476 20.531 59.3436 20.5737 59.4183 20.659C59.4929 20.7443 59.5303 20.8403 59.5303 20.947V22.995C59.5303 23.4323 59.4716 23.859 59.3543 24.275C59.2476 24.691 59.0343 25.091 58.7143 25.475C58.4049 25.859 57.9463 26.2217 57.3383 26.563ZM62.0869 29.667C61.9802 29.667 61.8842 29.6297 61.7989 29.555C61.7242 29.4697 61.6869 29.3737 61.6869 29.267V27.971C61.6869 27.8537 61.7242 27.7577 61.7989 27.683C61.8842 27.6083 61.9802 27.571 62.0869 27.571H66.1509V24.531C66.1509 23.923 65.9962 23.459 65.6869 23.139C65.3882 22.8083 64.9135 22.643 64.2629 22.643H62.2469C62.1402 22.643 62.0442 22.6057 61.9589 22.531C61.8842 22.4457 61.8469 22.3497 61.8469 22.243V20.931C61.8469 20.8137 61.8842 20.7177 61.9589 20.643C62.0442 20.5683 62.1402 20.531 62.2469 20.531H64.3429C65.3029 20.531 66.1135 20.6643 66.7749 20.931C67.4469 21.1977 67.9589 21.6243 68.3109 22.211C68.6629 22.7977 68.8389 23.571 68.8389 24.531V27.571H69.3989C69.5162 27.571 69.6122 27.6083 69.6869 27.683C69.7615 27.7577 69.7989 27.8537 69.7989 27.971V29.267C69.7989 29.3737 69.7615 29.4697 69.6869 29.555C69.6122 29.6297 69.5162 29.667 69.3989 29.667H62.0869ZM78.1224 29.667C78.0051 29.667 77.9037 29.6297 77.8184 29.555C77.7437 29.4803 77.7064 29.3843 77.7064 29.267V24.531C77.7064 23.9123 77.5571 23.443 77.2584 23.123C76.9597 22.7923 76.4851 22.627 75.8344 22.627H72.2344C72.117 22.627 72.021 22.5897 71.9464 22.515C71.8717 22.4403 71.8344 22.3443 71.8344 22.227V20.931C71.8344 20.8137 71.8717 20.7177 71.9464 20.643C72.021 20.5683 72.117 20.531 72.2344 20.531H75.9144C77.3437 20.531 78.4317 20.851 79.1784 21.491C79.9357 22.131 80.3144 23.1443 80.3144 24.531V29.267C80.3144 29.3737 80.2717 29.4697 80.1864 29.555C80.1117 29.6297 80.0211 29.667 79.9144 29.667H78.1224ZM72.2344 29.667C72.117 29.667 72.021 29.6297 71.9464 29.555C71.8717 29.4697 71.8344 29.3737 71.8344 29.267V24.531C71.8344 24.4243 71.8717 24.3337 71.9464 24.259C72.021 24.1737 72.117 24.131 72.2344 24.131H74.0264C74.1437 24.131 74.2397 24.1737 74.3144 24.259C74.389 24.3337 74.4264 24.4243 74.4264 24.531V29.267C74.4264 29.3737 74.389 29.4697 74.3144 29.555C74.2397 29.6297 74.1437 29.667 74.0264 29.667H72.2344Z" fill="#FAFCFE"/>
</svg>
